<svg width="582" height="353" viewBox="0 0 582 353" fill="none" xmlns="http://www.w3.org/2000/svg">
<path d="M228.47 92.9846C234.45 121.129 222.82 142.497 219.074 150.552C216.366 156.373 212.296 161.209 207.969 166.756C206.013 169.268 204.138 171.033 202.105 173.481C201.025 174.777 199.923 176.048 198.791 177.298C198.261 177.882 197.732 178.462 197.194 179.037C196.937 179.31 196.677 179.583 196.42 179.856C194.622 181.771 198.005 178.266 198.163 178.133C192.876 182.692 187.849 187.417 182.236 191.613C176.705 195.749 170.944 199.583 165.024 203.143C143.148 216.307 118.931 226.273 94.0223 231.983C71.7018 237.1 47.1006 238.042 26.9157 225.275C16.6737 218.797 9.87851 208.691 7.491 196.854C5.06077 184.824 6.72221 172.227 9.86143 160.492C16.4815 135.747 29.6705 112.681 46.8871 93.7863C48.1428 92.4089 50.0818 90.9633 51.03 89.377C51.03 89.377 49.2917 91.0571 50.2612 90.1488C50.5901 89.8418 50.9061 89.522 51.2307 89.215C52.1832 88.3024 53.1484 87.3941 54.118 86.4986C57.4835 83.3815 60.9388 80.3581 64.4667 77.4285C71.4626 71.6121 78.7405 66.141 86.2362 60.9898C102.12 50.069 118.982 40.5384 136.506 32.4917C170.705 16.7864 208.456 5.90404 246.366 6.44561C277.13 6.88483 313.558 14.9613 330.775 42.969C347.005 69.3776 345.907 104.021 338.77 133.094C335.012 148.42 329.229 163.371 321.169 176.961C317.385 183.344 313.075 189.451 308.1 194.969C305.661 197.677 302.432 200.606 298.972 203.719C295.035 207.263 290.998 210.695 286.873 214.021C257.274 237.893 223.482 256.007 188.489 270.655C160.236 282.48 131.069 291.652 102.27 301.993C92.852 305.375 83.2635 308.829 74.5164 313.741C71.4584 315.46 68.5498 317.404 66.0085 319.826C62.801 322.884 58.5385 326.214 56.6208 330.393C52.7384 338.854 62.0834 348.167 69.2289 350.964C77.4165 354.166 86.7957 353.083 95.1498 351.177C105.114 348.904 114.831 345.152 124.078 340.845C136.617 334.999 146.394 324.88 155.935 315.144C170.132 300.654 183.355 285.222 197.27 270.463C216.768 249.782 235.599 228.486 255.1 207.808C279.603 181.831 305.093 156.787 332.393 133.73C360.838 109.705 433.95 62.5548 469.366 50.7684C502.68 39.6813 525.278 37.5406 542.4 37.1227C559.912 36.6963 580.814 40.0352 581.233 40.1376C546.62 31.609 510.62 34.4874 476.806 45.1097C441.301 56.2607 408.525 75.0022 378.345 96.5026C347.714 118.323 319.448 143.307 292.553 169.537C267.918 193.57 244.329 218.606 221.12 244.008C212.117 253.858 203.169 263.76 194.042 273.495C180.062 288.407 166.634 303.87 152.416 318.56C152.224 318.756 151.639 319.562 151.412 319.592C151.288 319.609 153.851 317.217 152.664 318.33C151.963 318.986 151.28 319.656 150.579 320.308C149.272 321.524 147.94 322.722 146.577 323.877C144.164 325.929 141.661 327.869 139.031 329.634C132.543 333.992 125.231 336.973 117.953 339.736C103.056 345.386 79.0608 353.002 66.7133 338.342C64.2531 335.421 61.7887 331.412 62.0749 327.395C62.2586 324.82 63.5612 322.82 65.0903 320.837C66.9268 318.462 58.3335 327.144 60.7637 325.17C61.0712 324.918 61.3659 324.645 61.6734 324.393C62.3568 323.839 63.0615 323.315 63.7833 322.811C65.3294 321.737 66.9439 320.765 68.5925 319.852C72.6884 317.588 76.9808 315.682 81.3074 313.903C107.399 303.162 134.691 295.409 161.069 285.392C196.096 272.088 230.303 256.093 261.208 234.771C278.202 223.049 293.74 209.676 308.275 195.045C319.123 184.12 327.699 171.835 334.209 157.865C347.684 128.958 354.12 94.2937 347.286 62.8021C344.22 48.6618 338.035 34.9565 327.665 24.6497C316.313 13.3665 300.459 7.41786 285.113 3.87426C248.698 -4.53914 209.951 1.71227 174.993 13.4006C138.163 25.7116 103.107 44.7643 72.996 69.2838C49.7871 88.1788 28.4832 110.396 14.9696 137.307C9.2165 148.77 4.53544 160.914 1.95146 173.498C-0.478765 185.31 -1.13223 198.022 2.89109 209.57C11.51 234.324 40.835 243.479 64.9237 241.888C88.0172 240.366 111.055 232.665 132.052 223.318C144.69 217.693 156.909 211.075 168.364 203.318C180.695 194.969 191.633 185.148 201.922 174.415C220.061 155.503 232.498 131.286 230.948 104.562C230.085 89.684 225.165 75.3945 218.186 62.3117C218.566 63.0281 225.297 78.0511 228.47 92.9846Z" fill="#9C1007"/>
</svg>
