<svg width="360" height="353" viewBox="0 0 360 353" fill="none" xmlns="http://www.w3.org/2000/svg">
<path d="M201.47 92.9846C207.45 121.129 195.82 142.497 192.074 150.552C189.366 156.373 185.296 161.209 180.969 166.756C179.013 169.268 177.138 171.033 175.105 173.481C174.025 174.777 172.923 176.048 171.791 177.298C171.261 177.882 170.732 178.462 170.194 179.037C169.937 179.31 169.677 179.583 169.42 179.856C167.622 181.771 171.005 178.266 171.163 178.133C165.876 182.692 160.849 187.417 155.236 191.613C149.705 195.749 143.944 199.583 138.024 203.143C116.148 216.307 91.931 226.273 67.0223 231.983C44.7018 237.1 20.1006 238.042 -0.0843086 225.275C-10.3263 218.797 -17.1215 208.691 -19.509 196.854C-21.9392 184.824 -20.2778 172.227 -17.1386 160.492C-10.5185 135.747 2.67051 112.681 19.8871 93.7863C21.1428 92.4089 23.0818 90.9633 24.03 89.377C24.03 89.377 22.2917 91.0571 23.2612 90.1488C23.5901 89.8418 23.9061 89.522 24.2307 89.215C25.1832 88.3024 26.1484 87.3941 27.118 86.4986C30.4835 83.3815 33.9388 80.3581 37.4667 77.4285C44.4626 71.6121 51.7405 66.141 59.2362 60.9898C75.1202 50.069 91.9822 40.5384 109.506 32.4917C143.705 16.7864 181.456 5.90404 219.366 6.44561C250.13 6.88483 286.558 14.9613 303.775 42.969C320.005 69.3776 318.907 104.021 311.77 133.094C308.012 148.42 302.229 163.371 294.169 176.961C290.385 183.344 286.075 189.451 281.1 194.969C278.661 197.677 275.432 200.606 271.972 203.719C268.035 207.263 263.998 210.695 259.873 214.021C230.274 237.893 196.482 256.007 161.489 270.655C133.236 282.48 104.069 291.652 75.2697 301.993C65.852 305.375 56.2635 308.829 47.5164 313.741C44.4584 315.46 41.5498 317.404 39.0085 319.826C35.801 322.884 31.5385 326.214 29.6208 330.393C25.7384 338.854 35.0834 348.167 42.2289 350.964C50.4165 354.167 59.7957 353.083 68.1498 351.177C78.1142 348.904 87.8308 345.152 97.0776 340.845C109.617 334.999 119.394 324.88 128.935 315.144C143.132 300.654 156.355 285.222 170.27 270.463C189.768 249.782 208.599 228.486 228.1 207.808C252.603 181.831 278.093 156.786 305.393 133.73C333.839 109.705 406.95 62.5548 442.366 50.7684C475.68 39.6813 498.278 37.5406 515.4 37.1227C532.912 36.6963 553.814 40.0352 554.233 40.1376C519.62 31.609 483.62 34.4874 449.806 45.1097C414.301 56.2607 381.525 75.0022 351.345 96.5026C320.714 118.323 292.448 143.307 265.553 169.537C240.918 193.57 217.329 218.606 194.12 244.008C185.117 253.858 176.169 263.76 167.042 273.495C153.062 288.407 139.634 303.87 125.416 318.56C125.224 318.756 124.639 319.562 124.412 319.592C124.288 319.609 126.851 317.217 125.664 318.33C124.963 318.986 124.28 319.656 123.579 320.308C122.272 321.524 120.94 322.722 119.577 323.877C117.164 325.929 114.661 327.869 112.031 329.634C105.543 333.992 98.2308 336.973 90.9529 339.736C76.0555 345.386 52.0608 353.002 39.7132 338.342C37.2531 335.421 34.7887 331.412 35.0749 327.395C35.2586 324.82 36.5612 322.82 38.0903 320.837C39.9268 318.462 31.3335 327.144 33.7637 325.169C34.0712 324.918 34.3659 324.645 34.6734 324.393C35.3568 323.839 36.0615 323.315 36.7833 322.811C38.3294 321.737 39.9439 320.765 41.5925 319.852C45.6884 317.588 49.9808 315.682 54.3074 313.903C80.3992 303.162 107.691 295.409 134.069 285.392C169.096 272.088 203.303 256.093 234.208 234.771C251.202 223.049 266.74 209.676 281.275 195.045C292.123 184.12 300.699 171.835 307.209 157.865C320.684 128.958 327.12 94.2937 320.286 62.8021C317.22 48.6618 311.035 34.9565 300.665 24.6497C289.313 13.3665 273.459 7.41786 258.113 3.87426C221.698 -4.53914 182.951 1.71227 147.993 13.4006C111.163 25.7116 76.1068 44.7643 45.9959 69.2838C22.7871 88.1788 1.48316 110.396 -12.0304 137.307C-17.7835 148.77 -22.4646 160.914 -25.0485 173.498C-27.4788 185.31 -28.1322 198.022 -24.1089 209.57C-15.49 234.324 13.835 243.479 37.9237 241.888C61.0172 240.366 84.0552 232.665 105.052 223.318C117.69 217.693 129.909 211.075 141.364 203.318C153.695 194.969 164.633 185.148 174.922 174.415C193.061 155.503 205.498 131.286 203.948 104.562C203.085 89.684 198.165 75.3945 191.186 62.3117C191.566 63.0281 198.297 78.0511 201.47 92.9846Z" fill="#9C1007"/>
</svg>
