<svg width="1575" height="1022" viewBox="0 0 1575 1022" fill="none" xmlns="http://www.w3.org/2000/svg">
<g clip-path="url(#clip0_1574_806)">
<path d="M107.191 182.592C111.028 178.425 114.788 173.66 119.085 169.983C119.606 169.539 111.718 177.153 115.202 173.905C116.43 172.771 117.611 171.592 118.824 170.443C120.865 168.497 122.936 166.567 125.008 164.651C133.556 156.731 142.318 149.024 151.28 141.578C167.301 128.265 183.967 115.717 201.247 104.089C264.503 61.5736 337.258 30.7789 413.742 24.099C486.328 17.7563 560.342 34.8236 621.419 74.9639C682.495 115.104 723.408 175.851 748.314 242.757C773.558 310.597 783.165 383.922 782.505 456.036C781.845 528.151 771.839 593.908 749.465 659.113C726.139 727.121 689.508 790.411 641.353 843.896C638.775 846.761 636.166 849.595 633.542 852.399C632.191 853.839 630.749 855.233 629.429 856.704C628.324 857.945 641.46 844.892 635.107 850.959C629.245 856.551 623.26 862.02 617.152 867.352C604.922 878.015 592.215 888.112 579.079 897.641C554.464 915.505 528.391 931.332 501.198 944.952C452.398 969.404 399.746 987.13 345.637 995.035C304.233 1001.09 259.868 1002.25 219.524 989.581C204.5 984.862 189.952 977.968 177.982 967.611C156.498 949.042 142.917 923.181 136.978 895.665C120.496 819.322 155.009 738.597 195.645 675.659C209.794 653.75 225.524 632.868 242.389 612.982C251.106 602.702 260.129 592.667 269.459 582.938C270.994 581.329 276.258 576.013 269.997 582.279C263.735 588.545 268.385 583.934 269.644 582.724C272.836 579.644 276.073 576.611 279.327 573.608C305.323 549.615 333.114 527.584 362.241 507.514C419.343 468.17 481.448 436.38 545.917 410.932C611.152 385.178 678.828 365.813 747.424 351.335C814.716 337.132 878.586 325.151 946.891 317.123C1027.33 307.67 1040.65 306.567 1105.6 303.074C1418.66 286.221 1573.74 330.36 1575.06 330.759C1556.78 325.351 1537.42 322.669 1518.65 319.575C1480.02 313.217 1441.17 308.268 1402.24 304.239C1348.2 298.631 1293.97 294.878 1239.69 292.932C1175.55 290.634 1111.29 290.864 1047.18 294.035C977.091 297.497 907.129 304.453 837.888 315.882C768.648 327.312 696.077 344.103 627.526 366.839C558.976 389.575 493.433 418.194 431.804 454.795C366.369 493.664 309.113 541.679 256.032 595.976C191.702 661.779 132.62 742.534 114.864 834.658C103.938 891.329 111.718 961.023 163.173 996.537C194.433 1018.11 235.99 1022.52 272.958 1021.97C325.273 1021.19 377.372 1009.1 426.172 990.669C484.579 968.607 539.272 936.586 587.059 896.446C642.581 849.825 692.808 794.579 729.07 731.656C765.916 667.723 788.751 596.619 798.772 523.662C808.7 451.364 807.902 376.89 794.429 305.097C780.909 232.997 753.562 161.495 704.962 105.498C655.625 48.7501 585.371 12.7311 511.02 2.8492C435.119 -7.24717 358.19 10.2491 289.854 43.3112C209.365 82.2565 141.643 142.283 81.978 208.009C51.547 241.531 24.2619 277.795 0 315.99C2.59346 311.899 75.7322 216.788 107.191 182.592Z" fill="#9C1007"/>
</g>
<defs>
<clipPath id="clip0_1574_806">
<rect width="1575" height="1022" fill="white"/>
</clipPath>
</defs>
</svg>
