<svg width="139" height="265" viewBox="0 0 139 265" fill="none" xmlns="http://www.w3.org/2000/svg">
<g opacity="0.6" clip-path="url(#clip0_954_10923)">
<path d="M141.27 18.0354C141.972 18.6809 142.773 19.3135 143.392 20.0364C143.467 20.1242 142.186 18.7971 142.732 19.3832C142.923 19.5898 143.122 19.7886 143.315 19.9925C143.642 20.336 143.967 20.6845 144.29 21.0331C145.623 22.4713 146.92 23.9456 148.173 25.4535C150.413 28.1491 152.525 30.9532 154.482 33.8606C161.637 44.5036 166.82 56.745 167.944 69.6137C169.012 81.8267 166.139 94.2797 159.384 104.556C152.628 114.833 142.405 121.716 131.145 125.907C119.727 130.154 107.387 131.771 95.2502 131.66C83.1135 131.549 72.0468 129.865 61.073 126.1C49.6273 122.176 38.9758 116.013 29.9744 107.91C29.4923 107.476 29.0152 107.037 28.5434 106.596C28.301 106.369 28.0664 106.126 27.8189 105.904C27.61 105.718 29.8068 107.928 28.7858 106.859C27.8446 105.873 26.9241 104.866 26.0268 103.838C24.2322 101.78 22.533 99.6426 20.9293 97.4324C17.9228 93.2908 15.2593 88.904 12.967 84.3286C8.85183 76.1178 5.86859 67.2589 4.53811 58.1547C3.51964 51.1885 3.32368 43.7238 5.45605 36.9357C6.25021 34.4079 7.41049 31.9602 9.15352 29.9462C12.2786 26.3314 16.631 24.0463 21.2619 23.0471C34.1102 20.274 47.696 26.0809 58.2883 32.9181C61.9754 35.2987 65.4899 37.9453 68.8367 40.7829C70.5668 42.2495 72.2557 43.7677 73.893 45.3376C74.1637 45.5958 75.0585 46.4814 74.0039 45.428C72.9493 44.3745 73.7254 45.1569 73.9291 45.3686C74.4474 45.9057 74.9579 46.4505 75.4633 46.9978C79.5011 51.3718 83.2089 56.0478 86.5867 60.9485C93.2081 70.5562 98.5584 81.0056 102.841 91.8526C107.176 102.829 110.435 114.215 112.871 125.757C115.261 137.079 117.278 147.826 118.629 159.318C120.22 172.853 120.405 175.094 120.993 186.021C123.83 238.694 116.401 264.788 116.334 265.01C117.244 261.935 117.696 258.677 118.216 255.519C119.286 249.02 120.119 242.482 120.797 235.932C121.741 226.84 122.373 217.716 122.7 208.583C123.087 197.79 123.048 186.979 122.515 176.192C121.932 164.4 120.761 152.628 118.838 140.978C116.914 129.328 114.088 117.118 110.262 105.584C106.435 94.0499 101.619 83.0221 95.4591 72.6528C88.9176 61.643 80.8367 52.0095 71.6988 43.0783C60.6244 32.2545 47.0334 22.3138 31.5292 19.3264C21.9916 17.488 10.2623 18.7971 4.28543 27.4546C0.654982 32.7141 -0.0876024 39.7062 0.0052165 45.9263C0.136716 54.7284 2.17111 63.4943 5.27298 71.7051C8.98593 81.5323 14.3749 90.7346 21.1304 98.775C28.9766 108.117 38.2744 116.568 48.8641 122.669C59.6239 128.868 71.5905 132.71 83.869 134.396C96.0366 136.067 108.57 135.933 120.653 133.666C132.787 131.391 144.821 126.79 154.245 118.613C163.795 110.311 169.857 98.491 171.52 85.9811C173.22 73.2105 170.275 60.2668 164.711 48.7691C158.156 35.2264 148.054 23.832 136.993 13.7931C131.351 8.67299 125.248 4.08217 118.82 -2.32458e-06C119.508 0.436358 135.515 12.7422 141.27 18.0354Z" fill="#9C1007"/>
</g>
<defs>
<clipPath id="clip0_954_10923">
<rect width="265" height="172" fill="white" transform="translate(172) rotate(90)"/>
</clipPath>
</defs>
</svg>
