<svg width="1795" height="1406" viewBox="0 0 1795 1406" fill="none" xmlns="http://www.w3.org/2000/svg">
<g opacity="0.5" clip-path="url(#clip0_1574_809)">
<path d="M1688.1 777.473C1590.05 842.21 1465.3 877.595 1341.45 907.846C1219.13 937.728 1091.87 958.671 962.694 972.934C914.64 978.235 866.226 982.625 817.381 985.382C798.44 986.446 778.191 985.731 759.796 988.432C729.101 992.932 699.034 1006.52 679.491 1024.72C659.949 1042.91 648.499 1068.15 659.573 1094.94C670.385 1121.09 698.178 1142.28 726.989 1156.82C791.743 1189.48 871.373 1195.19 937.377 1184.01C1003.38 1172.83 1067.8 1144.65 1110.83 1103.67C1161.64 1055.31 1187.41 990.979 1191.31 923.9C1195.14 857.902 1177.15 789.633 1145.29 724.541C1113.38 659.343 1067.9 598.49 1016.82 540.177C965.032 481.067 908.761 418.436 902.559 347.974C899.801 316.564 907.888 283.946 933.201 262.508C944.773 252.708 958.365 245.711 975.571 242.898C991.468 240.302 1008.56 240.291 1025.42 243.707C1098.31 258.51 1128.1 331.325 1110.11 379.283C1098.47 410.341 1070.01 434.08 1039.55 452.92C1010.21 471.082 977.839 486.654 945.478 501.475C828.134 555.238 692.617 586.924 545.64 570.683C527.361 568.666 509.081 565.972 490.858 562.643C474.189 559.596 457.154 556.522 440.852 551.41C412.193 542.426 384.394 529.737 357.049 517.702C336.972 508.874 324.44 502.099 305.317 489.95C279.659 473.652 269.264 464.01 236.352 430.357C214.622 408.136 188.905 377.102 183.905 350.522C184.143 351.816 183.997 348.645 184.481 351.203C194.504 404.56 239.107 453.841 289.748 491.786C307.042 504.75 324.998 516.219 345.242 525.565C372.623 538.21 401.414 550.771 430.663 559.034C466.269 569.105 504.541 574.227 540.723 577.677C575.843 581.021 610.858 581.839 645.219 580.133C713.897 576.729 779.146 563.07 840.44 543.399C906.485 522.202 968.237 494.653 1026.69 463.686C1058.8 446.678 1089.81 427.261 1110.45 400.714C1128.83 377.062 1135.72 349.151 1128.13 318.909C1121.23 291.449 1102.46 263.052 1070.47 247.526C1040.45 232.955 1005.55 232.407 976.59 240.097C946.704 248.035 918.793 261.277 903.309 283.389C884.653 310.045 882.42 343.559 890.057 376.031C906.824 447.301 968.671 507.935 1020.25 568.588C1070.3 627.447 1112.91 690.426 1141.04 756.284C1169.95 823.952 1182.61 894.217 1171.77 960.771C1161.06 1026.48 1127.66 1088.47 1069.01 1130.75C1042.1 1150.15 1010.67 1165.12 974.956 1173.63C939.242 1182.13 903.158 1185.04 865.398 1182.39C829.653 1179.87 792.324 1172.28 758.611 1158.11C727.76 1145.14 697.093 1125.42 681.191 1099.73C664.609 1072.96 670.822 1045.83 689.307 1025.25C699.005 1014.46 711.051 1007.75 726.061 1001.73C737.813 997.033 753.683 991.22 767.214 990.764C834.704 984.336 852.232 988.121 894.663 984.146C1020.45 972.377 1144.36 953.836 1264.34 927.886C1393.4 899.967 1520.96 863.559 1631.99 808.167C1656.39 795.993 1679.88 782.753 1701.98 768.173" fill="#9C1007"/>
</g>
<defs>
<clipPath id="clip0_1574_809">
<rect width="1573.26" height="975.227" fill="white" transform="translate(295.301) rotate(17.626)"/>
</clipPath>
</defs>
</svg>
