<svg width="360" height="454" viewBox="0 0 360 454" fill="none" xmlns="http://www.w3.org/2000/svg">
<g opacity="0.5" clip-path="url(#clip0_954_10888)">
<path d="M537.668 302.852C506.033 323.739 465.783 335.156 425.822 344.917C386.355 354.558 345.294 361.316 303.615 365.917C288.11 367.628 272.49 369.044 256.73 369.934C250.618 370.277 244.085 370.047 238.15 370.918C228.246 372.37 218.545 376.754 212.239 382.625C205.934 388.496 202.24 396.641 205.813 405.282C209.301 413.721 218.269 420.557 227.565 425.248C248.457 435.787 274.15 437.628 295.446 434.021C316.743 430.413 337.526 421.322 351.411 408.101C367.807 392.495 376.121 371.74 377.377 350.097C378.614 328.802 372.809 306.775 362.53 285.773C352.235 264.737 337.56 245.103 321.077 226.288C304.369 207.216 286.214 187.008 284.213 164.273C283.322 154.139 285.932 143.614 294.099 136.698C297.833 133.536 302.218 131.278 307.77 130.37C312.899 129.533 318.414 129.529 323.852 130.631C347.371 135.408 356.984 158.901 351.179 174.375C347.424 184.396 338.239 192.055 328.414 198.134C318.945 203.994 308.502 209.019 298.06 213.801C260.199 231.147 216.474 241.371 169.052 236.131C163.154 235.48 157.256 234.611 151.377 233.536C145.998 232.554 140.502 231.562 135.242 229.912C125.995 227.014 117.026 222.919 108.203 219.036C101.725 216.188 97.6817 214.002 91.5115 210.082C83.2328 204.824 79.8788 201.713 69.2599 190.854C62.2485 183.685 53.9509 173.671 52.3379 165.095C52.4144 165.513 52.3676 164.49 52.5237 165.315C55.7575 182.531 70.1488 198.432 86.4881 210.675C92.0679 214.857 97.8616 218.558 104.393 221.573C113.228 225.653 122.517 229.706 131.955 232.372C143.443 235.621 155.792 237.274 167.466 238.387C178.797 239.466 190.095 239.73 201.181 239.18C223.34 238.081 244.393 233.674 264.17 227.328C285.479 220.488 305.403 211.6 324.265 201.608C334.623 196.12 344.629 189.855 351.288 181.29C357.219 173.659 359.443 164.653 356.992 154.895C354.767 146.035 348.71 136.873 338.39 131.864C328.702 127.162 317.442 126.985 308.099 129.467C298.456 132.028 289.45 136.3 284.455 143.435C278.435 152.035 277.714 162.849 280.179 173.326C285.588 196.321 305.544 215.885 322.186 235.455C338.334 254.446 352.084 274.766 361.159 296.015C370.485 317.848 374.571 340.519 371.072 361.993C367.619 383.195 356.842 403.197 337.919 416.838C329.235 423.097 319.094 427.928 307.571 430.671C296.048 433.415 284.406 434.354 272.222 433.497C260.689 432.686 248.645 430.236 237.768 425.665C227.813 421.48 217.919 415.117 212.788 406.829C207.438 398.192 209.442 389.439 215.406 382.798C218.535 379.315 222.422 377.15 227.265 375.209C231.057 373.693 236.177 371.817 240.543 371.67C262.319 369.596 267.974 370.817 281.665 369.535C322.251 365.738 362.229 359.756 400.94 351.383C442.582 342.374 483.741 330.628 519.565 312.755C527.438 308.827 535.016 304.555 542.146 299.851" fill="#9C1007"/>
</g>
<defs>
<clipPath id="clip0_954_10888">
<rect width="507.613" height="314.658" fill="white" transform="translate(88.2812) rotate(17.626)"/>
</clipPath>
</defs>
</svg>
