<svg width="54" height="54" viewBox="0 0 54 54" fill="none" xmlns="http://www.w3.org/2000/svg">
<g clip-path="url(#clip0_954_10904)">
<path d="M17.3551 19.1539C18.7389 13.3573 21.3123 10.8261 25.5901 10.2692C30.8214 9.58576 35.0992 11.3239 36.8795 15.6523C38.6008 19.8373 38.8454 23.7354 38.702 28.0301C38.5923 31.3798 38.4067 34.932 36.9386 38.2733C34.5086 43.8336 27.0836 45.5126 21.6414 42.5595C16.9164 40.0029 14.2923 31.6836 17.3383 27.4901C18.452 25.9629 20.9664 25.0011 22.9745 24.6889C25.9614 24.2248 30.1295 24.5708 33.0995 24.5708C34.1964 18.5464 34.7448 13.332 29.6654 11.9567C26.1892 11.0117 23.5061 11.9314 21.7258 13.4586C19.3464 15.492 18.5279 19.1623 18.5279 19.1623C18.5279 19.1623 17.9204 19.1623 17.3467 19.1623L17.3551 19.1539ZM33.0236 26.1908C29.9354 26.0051 27.5898 25.7773 25.2358 25.7351C19.9708 25.6508 17.9964 27.1948 17.7095 31.4389C17.3636 36.5689 20.2492 41.0408 24.4089 41.7411C28.1129 42.357 30.9395 41.0661 31.7495 37.2692C32.4751 33.8942 32.5679 30.3842 33.0151 26.1908H33.0236Z" fill="#9C1007"/>
</g>
<defs>
<clipPath id="clip0_954_10904">
<rect width="22.7053" height="33.8766" fill="white" transform="translate(16.0312 10.125)"/>
</clipPath>
</defs>
</svg>
