<svg width="48" height="48" viewBox="0 0 48 48" fill="none" xmlns="http://www.w3.org/2000/svg">
<path d="M15.4268 17.0257C16.6568 11.8732 18.9443 9.62317 22.7468 9.12817C27.3968 8.52067 31.1993 10.0657 32.7818 13.9132C34.3118 17.6332 34.5293 21.0982 34.4018 24.9157C34.3043 27.8932 34.1393 31.0507 32.8343 34.0207C30.6743 38.9632 24.0743 40.4557 19.2368 37.8307C15.0368 35.5582 12.7043 28.1632 15.4118 24.4357C16.4018 23.0782 18.6368 22.2232 20.4218 21.9457C23.0768 21.5332 26.7818 21.8407 29.4218 21.8407C30.3968 16.4857 30.8843 11.8507 26.3693 10.6282C23.2793 9.78817 20.8943 10.6057 19.3118 11.9632C17.1968 13.7707 16.4693 17.0332 16.4693 17.0332C16.4693 17.0332 15.9293 17.0332 15.4193 17.0332L15.4268 17.0257ZM29.3543 23.2807C26.6093 23.1157 24.5243 22.9132 22.4318 22.8757C17.7518 22.8007 15.9968 24.1732 15.7418 27.9457C15.4343 32.5057 17.9993 36.4807 21.6968 37.1032C24.9893 37.6507 27.5018 36.5032 28.2218 33.1282C28.8668 30.1282 28.9493 27.0082 29.3468 23.2807H29.3543Z" fill="white"/>
</svg>
