<svg width="44" height="44" viewBox="0 0 44 44" fill="none" xmlns="http://www.w3.org/2000/svg">
<path d="M14.0008 31.0008L10.6758 19.0008H16.7258L21.3508 12.2508C21.4341 12.1508 21.5258 12.0716 21.6258 12.0133C21.7258 11.9549 21.8424 11.9258 21.9758 11.9258C22.1091 11.9258 22.2258 11.9549 22.3258 12.0133C22.4258 12.0716 22.5174 12.1508 22.6008 12.2508L27.2008 19.0008H33.3508L29.9758 31.0008H14.0008ZM18.5508 19.0008H25.3758L21.9758 14.0008L18.5508 19.0008ZM22.0008 26.5008C22.4174 26.5008 22.7716 26.3549 23.0633 26.0633C23.3549 25.7716 23.5008 25.4174 23.5008 25.0008C23.5008 24.5841 23.3549 24.2299 23.0633 23.9383C22.7716 23.6466 22.4174 23.5008 22.0008 23.5008C21.5841 23.5008 21.2299 23.6466 20.9383 23.9383C20.6466 24.2299 20.5008 24.5841 20.5008 25.0008C20.5008 25.4174 20.6466 25.7716 20.9383 26.0633C21.2299 26.3549 21.5841 26.5008 22.0008 26.5008ZM15.1508 29.5008H28.8508L31.3758 20.5008H12.6508L15.1508 29.5008Z" fill="#9C1007"/>
</svg>
